<svg width="275" height="366" xmlns="http://www.w3.org/2000/svg" viewBox="0 0 77.735802 103.41995" role="img" aria-label="Explora">
  <g transform="translate(-66.125792,-95.615339)">
  <path fill="#2d9486" d="m 107.81317,198.82741 c -0.0707,-0.11434 0.0922,-0.20789 0.36183,-0.20789 0.26967,0 0.4325,0.0935 0.36183,0.20789 -0.0707,0.11433 -0.23349,0.20788 -0.36183,0.20788 -0.12835,0 -0.29117,-0.0935 -0.36183,-0.20788 z m -5.41723,-1.37962 c 0,-0.3638 0.0601,-0.51263 0.13345,-0.33073 0.0734,0.1819 0.0734,0.47956 0,0.66146 -0.0734,0.1819 -0.13345,0.0331 -0.13345,-0.33073 z m 5.02708,-0.26458 c 0,-0.3638 0.0601,-0.51263 0.13346,-0.33073 0.0734,0.1819 0.0734,0.47956 0,0.66146 -0.0734,0.1819 -0.13346,0.0331 -0.13346,-0.33073 z m -5.04797,-28.72934 c 0.0127,-0.30823 0.0754,-0.37092 0.15986,-0.15986 0.0764,0.191 0.067,0.41921 -0.0209,0.50712 -0.0879,0.0879 -0.15045,-0.0684 -0.13896,-0.34726 z m 2.15042,-3.88087 c -0.34803,-0.41935 -5.082827,-7.70459 -6.491172,-9.98771 -3.299278,-5.34857 -4.734542,-8.05042 -4.489416,-8.45123 0.357037,-0.58379 3.308527,-1.52435 6.349809,-2.02352 4.585309,-0.75258 11.319049,-0.24412 15.013779,1.13368 2.0297,0.7569 2.04444,0.96428 0.28086,3.95145 -3.04842,5.16345 -8.82002,14.29919 -9.7148,15.37733 -0.34741,0.4186 -0.60165,0.4186 -0.94906,0 z m -2.87072,-24.03239 c -3.727482,-1.43349 -6.149626,-5.36804 -5.853393,-9.5083 0.46631,-6.51727 7.190423,-10.36651 13.257123,-7.58908 2.00351,0.91723 3.21887,2.10386 4.20431,4.10488 0.78364,1.59123 0.86533,1.98253 0.86533,4.14455 0,1.9055 -0.12636,2.6945 -0.62601,3.9087 -0.81125,1.97144 -3.11309,4.15942 -5.19559,4.93858 -1.93474,0.72388 -4.77048,0.72416 -6.65177,7.9e-4 z m -35.496921,-6.19595 c 0.0054,-0.43656 0.06469,-0.58312 0.131773,-0.32569 0.06708,0.25743 0.06267,0.61462 -0.0098,0.79375 -0.07248,0.17913 -0.127362,-0.0315 -0.12197,-0.46806 z m 77.492231,-0.022 c 0.0127,-0.30822 0.0754,-0.37091 0.15985,-0.15985 0.0764,0.191 0.067,0.4192 -0.0209,0.50712 -0.0879,0.0879 -0.15045,-0.0684 -0.13896,-0.34727 z m 0.0307,-4.21128 c 0.005,-0.43656 0.0647,-0.58313 0.13177,-0.3257 0.0671,0.25744 0.0627,0.61462 -0.01,0.79376 -0.0725,0.17913 -0.12736,-0.0315 -0.12197,-0.46806 z m -77.553613,-0.022 c 0.0127,-0.30823 0.07539,-0.37092 0.159851,-0.15985 0.07643,0.19099 0.06703,0.41919 -0.02088,0.50711 -0.08792,0.0879 -0.150453,-0.0683 -0.138965,-0.34726 z m 24.320778,-11.05807 c 0,-0.0549 0.20836,-0.2633 0.463021,-0.46302 0.419645,-0.32911 0.429004,-0.31975 0.0999,0.0999 -0.345644,0.44073 -0.562917,0.58089 -0.562917,0.36313 z m 7.2565,-13.26157 c 1.98e-4,-3.20145 0.0384,-4.47478 0.0849,-2.8296 0.0465,1.64517 0.04633,4.26455 -2.64e-4,5.82083 -0.0468,1.55628 -0.08484,0.21023 -0.08464,-2.99123 z m 14.552445,-0.13229 c 0,-3.27422 0.038,-4.61367 0.0844,-2.97656 0.0464,1.63711 0.0464,4.31602 0,5.95312 -0.0464,1.63711 -0.0844,0.29766 -0.0844,-2.97656 z m -35.313752,0.19844 c 0.648761,-0.69122 1.214308,-1.25677 1.256771,-1.25677 0.19867,0 -0.01138,0.23755 -1.179568,1.33397 l -1.256771,1.17957 z m 55.957982,0 -1.04588,-1.12448 1.12448,1.04588 c 0.61846,0.57524 1.12448,1.08126 1.12448,1.12448 0,0.20018 -0.23042,-1.3e-4 -1.20308,-1.04588 z m -2.39394,-2.11667 -0.50403,-0.59531 0.59532,0.50403 c 0.55944,0.47366 0.71576,0.6866 0.50403,0.6866 -0.0502,0 -0.3181,-0.2679 -0.59532,-0.59532 z m -50.113402,-0.8275 c 0,-0.0549 0.20836,-0.2633 0.463021,-0.46302 0.419645,-0.3291 0.429004,-0.31975 0.0999,0.0999 -0.345643,0.44073 -0.562917,0.58089 -0.562917,0.36312 z m 1.058334,-0.79375 c 0,-0.0549 0.208359,-0.2633 0.463021,-0.46302 0.419645,-0.3291 0.429003,-0.31975 0.0999,0.0999 -0.345644,0.44073 -0.562917,0.58089 -0.562917,0.36312 z m 39.952088,-3.868851 c -0.21829,-0.141064 -0.27782,-0.25648 -0.1323,-0.25648 0.14553,0 0.44318,0.115416 0.66146,0.25648 0.21828,0.141064 0.27782,0.25648 0.13229,0.25648 -0.14552,0 -0.44317,-0.115416 -0.66145,-0.25648 z M 90.712499,97.170705 c 0.218281,-0.141064 0.515937,-0.25648 0.661458,-0.25648 0.145521,0 0.08599,0.115416 -0.132292,0.25648 -0.218281,0.141065 -0.515937,0.256481 -0.661458,0.256481 -0.145521,0 -0.08599,-0.115416 0.132292,-0.256481 z m 3.902604,-1.233561 c 0.181901,-0.0734 0.479557,-0.0734 0.661458,0 0.181901,0.0734 0.03307,0.133452 -0.330729,0.133452 -0.363802,0 -0.51263,-0.06005 -0.330729,-0.133452 z m 1.339453,-0.270096 c 0.190995,-0.07643 0.419198,-0.06703 0.507119,0.02089 0.08792,0.08792 -0.06835,0.150453 -0.347266,0.138964 -0.308226,-0.01269 -0.370919,-0.07539 -0.159853,-0.159852 z"/>
  <path fill="#49299a" d="m 100.60411,197.13009 c -0.55575,-0.91667 -4.35984,-6.72683 -8.453545,-12.91147 -22.094466,-33.37961 -24.828922,-38.56792 -25.777157,-48.90913 -0.601993,-6.56518 0.696347,-13.58347 3.582559,-19.36586 4.471319,-8.95805 11.630677,-15.32762 21.002401,-18.685501 3.345664,-1.198748 6.137056,-1.782027 6.417218,-1.340918 0.114387,0.180099 0.209354,4.077922 0.211039,8.661829 0.0036,9.70247 0.123759,9.22399 -2.81196,11.19405 -3.107949,2.08563 -4.810715,3.56907 -6.060324,5.27973 -2.571742,3.5206 -3.5571,6.59744 -3.748317,11.70434 -0.10762,2.87427 -0.03858,3.81832 0.420073,5.74391 0.796809,3.34533 1.631286,4.96684 5.894555,11.45401 2.103951,3.20146 4.56896,7.01146 5.477798,8.46667 0.908839,1.45521 2.479016,3.90356 3.48928,5.44079 1.33876,2.03706 1.90927,3.17685 2.10393,4.2033 0.30109,1.58762 0.34776,27.83015 0.0525,29.49251 -0.10128,0.57013 -0.32036,1.08201 -0.48685,1.13751 -0.16649,0.0555 -0.75741,-0.6491 -1.31315,-1.56577 z m 7.12348,1.30989 c -0.32915,-0.50857 -0.42645,-28.86894 -0.1042,-30.37154 0.17363,-0.80961 0.97275,-2.34786 2.21609,-4.26582 1.06949,-1.64979 2.76161,-4.30931 3.76025,-5.91004 0.99864,-1.60073 3.42136,-5.3512 5.38382,-8.33437 5.22042,-7.93568 5.84029,-9.49498 6.05423,-15.22963 0.1861,-4.98826 -0.68652,-8.59957 -2.92258,-12.09509 -1.49805,-2.34184 -2.74072,-3.55738 -5.97233,-5.84193 -2.17215,-1.53558 -3.11305,-2.37059 -3.37343,-2.99378 -0.27916,-0.66813 -0.36111,-2.75631 -0.36111,-9.20208 v -8.33783 l 0.59532,-0.143505 c 1.3276,-0.32003 8.11316,2.089429 12.10468,4.298205 9.30044,5.14657 16.24926,15.05883 18.13251,25.86543 0.61618,3.53581 0.61904,9.211 0.006,12.7 -1.52306,8.67381 -4.83909,14.60595 -26.33896,47.11843 -3.85742,5.83326 -7.33799,11.16131 -7.73459,11.8401 -0.74208,1.27011 -1.07442,1.47773 -1.4461,0.90345 z"/>
  </g>
</svg>